<svg width="1259" height="550" viewBox="0 0 1259 550" fill="none" xmlns="http://www.w3.org/2000/svg">
<path d="M155.756 378.307C155.756 400.808 146.022 417.901 126.552 429.584C137.152 433.478 146.022 440.185 153.16 449.705C160.299 459.225 163.869 472.747 163.869 490.272C163.869 507.581 157.379 521.32 144.399 531.489C131.636 541.658 113.248 546.742 89.2355 546.742H12.6553C8.9777 546.742 5.94907 545.552 3.56946 543.172C1.18985 540.576 0 537.222 0 533.111V325.407C0 323.027 0.324527 321.512 0.973511 320.863C1.83882 319.998 3.46133 319.565 5.84094 319.565H79.8251C130.446 319.565 155.756 339.146 155.756 378.307ZM62.3026 372.141V414.655H63.925C84.6925 414.655 95.0763 407.732 95.0763 393.885C95.0763 386.312 93.0211 380.795 88.9109 377.333C85.017 373.871 78.419 372.141 69.1169 372.141H62.3026ZM62.3026 452.951V495.141H68.1434C77.4455 495.141 84.2599 493.41 88.5864 489.948C92.913 486.486 95.0763 480.969 95.0763 473.397C95.0763 465.824 93.0211 460.523 88.9109 457.494C85.017 454.465 78.419 452.951 69.1169 452.951H62.3026Z" fill="#C0F28A"/>
<path d="M310.134 537.98C296.505 545.985 278.982 549.987 257.566 549.987C236.149 549.987 218.086 542.739 203.376 528.243C188.665 513.531 181.31 493.302 181.31 467.555C181.31 441.592 188.341 420.713 202.402 404.919C216.68 389.125 234.635 381.228 256.268 381.228C277.901 381.228 294.558 386.745 306.24 397.779C318.138 408.813 324.087 422.228 324.087 438.022C324.087 473.072 303.968 490.597 263.731 490.597H241.341C241.341 497.088 243.072 501.631 246.533 504.228C250.211 506.607 255.511 507.797 262.433 507.797C277.576 507.797 291.962 504.336 305.591 497.412C305.807 497.196 306.78 498.71 308.511 501.956C313.703 511.259 316.299 519.156 316.299 525.647C316.299 531.921 314.244 536.032 310.134 537.98ZM269.572 444.188C269.572 435.101 265.137 430.558 256.268 430.558C252.158 430.558 248.588 431.856 245.56 434.452C242.747 436.832 241.341 440.402 241.341 445.162V455.222H258.864C266.003 455.222 269.572 451.544 269.572 444.188Z" fill="#C0F28A"/>
<path d="M413.104 544.795C413.104 546.309 405.316 547.067 389.741 547.067C368.108 546.418 357.291 545.228 357.291 543.497V438.346H348.855C343.23 438.346 339.552 433.586 337.822 424.067C337.389 421.254 337.173 418.441 337.173 415.629C337.173 408.922 338.471 402.214 341.067 395.507C344.961 385.988 351.018 381.228 359.238 381.228C367.459 381.228 374.814 383.175 381.304 387.069C387.794 390.964 392.12 394.858 394.283 398.753C407.912 387.069 424.137 381.228 442.957 381.228C461.778 381.228 475.406 386.312 483.843 396.481C492.28 406.65 496.499 423.309 496.499 446.46V543.821C496.499 546.418 487.196 547.716 468.592 547.716C450.204 547.716 441.01 546.418 441.01 543.821V450.03C441.01 439.212 437.225 433.803 429.653 433.803C427.49 433.803 424.461 434.776 420.567 436.724C416.673 438.455 414.186 439.753 413.104 440.618V544.795Z" fill="#C0F28A"/>
<path d="M591.828 544.795C591.828 546.309 584.04 547.067 568.465 547.067C546.832 546.418 536.016 545.228 536.016 543.497V438.346H527.579C521.954 438.346 518.277 433.586 516.546 424.067C516.113 421.254 515.897 418.441 515.897 415.629C515.897 408.922 517.195 402.214 519.791 395.507C523.685 385.988 529.742 381.228 537.963 381.228C546.183 381.228 553.538 383.175 560.028 387.069C566.518 390.964 570.844 394.858 573.008 398.753C586.636 387.069 602.861 381.228 621.682 381.228C640.502 381.228 654.131 386.312 662.568 396.481C671.004 406.65 675.223 423.309 675.223 446.46V543.821C675.223 546.418 665.921 547.716 647.316 547.716C628.929 547.716 619.734 546.418 619.734 543.821V450.03C619.734 439.212 615.949 433.803 608.377 433.803C606.214 433.803 603.185 434.776 599.292 436.724C595.398 438.455 592.91 439.753 591.828 440.618V544.795Z" fill="#C0F28A"/>
<path d="M723.177 428.935C717.119 418.117 714.091 409.354 714.091 402.647C714.091 395.724 715.93 391.288 719.607 389.341C731.938 383.932 748.812 381.228 770.228 381.228C791.861 381.228 807.112 386.312 815.981 396.481C824.851 406.433 829.286 421.254 829.286 440.943V492.22H840.318C843.996 492.22 846.808 494.383 848.755 498.71C850.919 503.038 852 508.987 852 516.56C852 524.133 850.053 531.597 846.159 538.953C842.482 546.309 837.398 549.987 830.908 549.987C819.226 549.987 809.816 546.85 802.677 540.576C799.432 537.98 796.945 534.842 795.214 531.164C785.263 543.713 769.795 549.987 748.812 549.987C733.02 549.987 719.715 544.362 708.899 533.111C698.083 521.861 692.674 508.555 692.674 493.193C692.674 457.927 713.766 440.294 755.95 440.294H773.797V437.048C773.797 431.423 772.824 427.853 770.877 426.339C769.146 424.608 764.928 423.742 758.222 423.742C750.001 423.742 738.32 425.473 723.177 428.935ZM749.136 488.65C749.136 493.41 750.434 497.088 753.03 499.684C755.626 502.064 758.871 503.254 762.765 503.254C766.875 503.254 770.553 501.631 773.797 498.386V473.397H764.712C754.328 473.397 749.136 478.481 749.136 488.65Z" fill="#C0F28A"/>
<path d="M282.309 248.5L282.958 204.363C282.958 201.334 286.095 199.387 292.368 198.521C298.642 197.439 303.834 196.898 307.944 196.898L320.599 197.872C328.82 199.17 332.93 201.442 332.93 204.687L331.632 306.268C327.305 309.297 318.544 312.326 305.348 315.355C292.368 318.167 277.442 319.574 260.568 319.574C229.201 319.574 203.89 309.405 184.637 289.067C165.384 268.73 155.757 238.872 155.757 199.495C155.757 165.959 165.167 138.698 183.988 117.711C202.809 96.7244 228.876 86.231 262.191 86.231C277.334 86.231 290.962 87.7455 303.077 90.7745C315.407 93.5872 323.844 97.4816 328.387 102.458C328.603 104.189 328.712 107.434 328.712 112.194C328.712 116.954 327.089 123.769 323.844 132.64C320.599 141.294 316.922 147.785 312.811 152.112C308.701 156.439 305.673 158.603 303.726 158.603C301.995 158.603 300.048 157.846 297.885 156.331C295.938 154.6 291.936 152.869 285.879 151.139C279.821 149.191 273.981 148.218 268.356 148.218C254.944 148.218 244.019 152.545 235.582 161.199C227.362 169.854 223.252 183.268 223.252 201.442C223.252 219.616 227.47 233.463 235.907 242.983C244.56 252.286 254.403 256.938 265.436 256.938C276.685 256.938 282.309 254.125 282.309 248.5Z" fill="#C0F28A"/>
<path d="M460.161 319.574C429.875 319.574 405.106 309.621 385.853 289.716C366.816 269.811 357.297 240.819 357.297 202.74C357.297 164.445 366.924 135.453 386.177 115.764C405.647 96.0753 430.633 86.231 461.135 86.231C491.853 86.231 516.623 95.9671 535.444 115.439C554.264 134.695 563.674 164.012 563.674 203.389C563.674 242.55 554.048 271.759 534.795 291.014C515.541 310.054 490.664 319.574 460.161 319.574ZM460.486 148.542C450.102 148.542 441.341 153.302 434.202 162.822C427.279 172.342 423.818 185.756 423.818 203.065C423.818 220.157 427.171 233.355 433.878 242.658C440.584 251.745 449.345 256.289 460.161 256.289C471.194 256.289 480.064 251.637 486.77 242.334C493.692 233.03 497.154 219.724 497.154 202.416C497.154 185.107 493.584 171.801 486.445 162.497C479.523 153.194 470.87 148.542 460.486 148.542Z" fill="#C0F28A"/>
<path d="M641.646 248.175C641.646 249.474 633.858 250.123 618.283 250.123C602.924 250.123 595.244 249.582 595.244 248.5L588.754 88.5027C588.754 86.7719 598.597 85.9064 618.283 85.9064C638.185 85.9064 648.136 86.6637 648.136 88.1782L641.646 248.175ZM588.105 267.648C588.105 266.133 598.056 265.376 617.958 265.376C638.077 265.376 648.136 266.025 648.136 267.323V314.057C648.136 316.22 638.077 317.302 617.958 317.302C598.056 317.302 588.105 316.653 588.105 315.355V267.648Z" fill="#C0F28A"/>
<path d="M1090.91 475.223C1089.91 466.945 1089.11 459.182 1088.02 451.461C1086.97 444.051 1085.9 436.619 1084.29 429.316C1083.41 425.322 1084.16 422.366 1086.24 418.886C1094.01 405.875 1101.34 392.618 1108.76 379.404C1109.52 378.055 1109.73 376.417 1109.35 374.275C1072.62 420.257 1028.53 456.965 976.03 484.839C960.294 445.978 944.688 407.439 928.845 368.31C968.521 352.922 1004.7 332.244 1038.37 304.735C1027.89 289.914 1017.86 275.019 1007.07 260.68C1000.22 251.578 992.322 243.258 984.695 234.766C983.699 233.663 981.053 232.71 979.929 233.256C949.069 248.098 918.209 245.399 888.388 231.436C841.257 209.366 809.755 173.214 796.055 122.531C792.327 108.739 791.781 94.6038 795.701 80.7043C803.242 53.9547 822.726 40.9012 848.734 36.5C878.469 31.4778 906.651 37.8707 933.473 50.5816C965.789 65.8946 991.99 88.1252 1008.22 120.593C1019.54 143.241 1023.34 166.918 1015.45 191.643C1015.3 192.125 1015.37 192.671 1015.32 193.571C1043.86 208.316 1070.25 226.424 1095.43 248.708C1107.97 230.226 1120.13 212.31 1132.25 194.46C1130.84 193.132 1130.37 192.596 1129.82 192.179C1108.65 176.63 1102.85 153.703 1111.98 128.774C1127.07 87.5898 1142.86 46.673 1158.3 5.61703C1160.15 0.691165 1163.22 -1.11855 1168.28 0.680457C1169.62 1.16233 1171.04 1.3765 1172.41 1.78342C1178.2 3.46464 1178.97 4.78177 1177.41 10.6714C1168.57 43.9317 1159.72 77.1919 1150.87 110.452C1150.51 111.834 1150.11 113.204 1149.77 114.586C1148.15 121.214 1150.78 126.761 1156.33 128.432C1162.56 130.306 1168 127.093 1170.08 120.058C1172.66 111.341 1175.06 102.571 1177.55 93.8221C1184.7 68.6038 1191.85 43.3855 1199 18.178C1201 11.1426 1203.06 9.90038 1209.69 11.6673C1217.57 13.7661 1218.7 15.5009 1216.87 22.8682C1208.33 57.1137 1199.77 91.3591 1191.28 125.615C1189.5 132.811 1192.54 138.208 1198.98 139.75C1204.66 141.121 1209.58 137.726 1211.59 131.066C1211.99 129.695 1212.37 128.325 1212.73 126.943C1219.93 99.8937 1227.13 72.8443 1234.33 45.7949C1235.93 39.7661 1237.44 33.7051 1239.13 27.6977C1240.73 21.958 1243.18 20.6409 1249.06 22.1187C1250.61 22.5149 1252.14 23.0396 1253.72 23.3394C1258.04 24.1747 1259.55 26.4877 1258.82 30.9852C1252.34 71.131 1246.01 111.287 1239.61 151.444C1238.79 156.552 1238.04 161.681 1236.87 166.714C1230.75 192.746 1211.4 208.488 1184.66 208.712C1179.62 208.755 1178.1 210.351 1177.27 215.009C1171.87 245.357 1162.62 274.537 1149.77 302.539C1148.25 305.848 1148.72 307.861 1150.67 310.603C1182.41 355.064 1203.8 404.066 1214.75 457.608C1215.04 459 1215.27 460.413 1215.48 461.816C1215.52 462.127 1215.3 462.48 1215 463.476C1173.96 467.363 1132.66 471.282 1090.91 475.244V475.223Z" fill="#C0F28A"/>
<path d="M869.636 433.493C889.527 425.686 908.572 418.212 928.013 410.587C928.763 411.958 929.534 413.104 930.049 414.357C934.558 425.408 938.95 436.502 943.556 447.51C944.648 450.112 944.595 451.804 942.517 454.063C928.303 469.537 925.443 487.142 933.283 506.556C935.083 511.021 937 515.433 938.693 519.931C943.127 531.731 937.964 542.675 926.01 546.905C923.172 547.912 920.301 548.822 916.809 550C901.127 511.257 885.521 472.718 869.646 433.503L869.636 433.493Z" fill="#C0F28A"/>
<path d="M1256.4 538.071C1214.75 542.043 1173.49 545.984 1131.6 549.989C1129.8 528.851 1128.07 508.344 1126.27 487.152C1136.03 486.156 1145.43 485.61 1154.67 484.132C1164.27 482.601 1170.92 483.608 1177.49 493.052C1188.62 509.072 1206.24 512.049 1224.89 509.436C1228.58 508.922 1232.33 508.569 1236.07 508.505C1247.26 508.301 1255.83 516.386 1256.38 527.576C1256.53 530.757 1256.4 533.948 1256.4 538.071Z" fill="#C0F28A"/>
</svg>
