<svg width="2731" height="1437" viewBox="0 0 2731 1437" fill="none" xmlns="http://www.w3.org/2000/svg">
<path d="M0 337C0 150.88 150.88 0 337 0H2394C2580.12 0 2731 150.88 2731 337V1100C2731 1286.12 2580.12 1437 2394 1437H337C150.88 1437 0 1286.12 0 1100V337Z" fill="#C0F28A"/>
<path d="M1478.3 1068.94C1476.56 1054.43 1475.15 1040.82 1473.23 1027.29C1471.39 1014.3 1469.51 1001.27 1466.7 988.474C1465.16 981.473 1466.47 976.293 1470.11 970.193C1483.73 947.389 1496.59 924.153 1509.59 900.992C1510.92 898.627 1511.3 895.756 1510.62 892.002C1446.23 972.595 1368.93 1036.94 1276.89 1085.79C1249.3 1017.68 1221.94 950.129 1194.17 881.548C1263.73 854.577 1327.16 818.334 1386.19 770.117C1367.82 744.14 1350.23 718.033 1331.31 692.901C1319.3 676.948 1305.45 662.364 1292.08 647.481C1290.34 645.547 1285.7 643.877 1283.73 644.834C1229.62 670.848 1175.52 666.118 1123.24 641.643C1040.61 602.961 985.375 539.597 961.355 450.764C954.82 426.59 953.862 401.815 960.736 377.453C973.957 330.568 1008.12 307.689 1053.71 299.975C1105.85 291.172 1155.26 302.377 1202.28 324.656C1258.94 351.495 1304.87 390.459 1333.32 447.367C1353.17 487.063 1359.84 528.561 1346 571.898C1345.74 572.743 1345.87 573.7 1345.77 575.277C1395.8 601.122 1442.08 632.86 1486.23 671.918C1508.22 639.523 1529.53 608.122 1550.77 576.835C1548.31 574.507 1547.49 573.569 1546.51 572.837C1509.4 545.584 1499.24 505.4 1515.24 461.706C1541.7 389.521 1569.38 317.805 1596.45 245.845C1599.69 237.211 1605.08 234.039 1613.95 237.193C1616.3 238.037 1618.79 238.413 1621.2 239.126C1631.34 242.073 1632.69 244.381 1629.95 254.704C1614.46 313 1598.94 371.296 1583.43 429.593C1582.79 432.014 1582.1 434.416 1581.5 436.837C1578.66 448.455 1583.26 458.178 1592.99 461.106C1603.92 464.39 1613.46 458.759 1617.1 446.428C1621.63 431.15 1625.84 415.779 1630.19 400.444C1642.74 356.244 1655.26 312.043 1667.81 267.861C1671.32 255.53 1674.93 253.353 1686.55 256.45C1700.37 260.128 1702.34 263.169 1699.13 276.082C1684.17 336.105 1669.16 396.128 1654.27 456.169C1651.15 468.782 1656.48 478.242 1667.77 480.944C1677.72 483.347 1686.36 477.397 1689.87 465.723C1690.59 463.32 1691.25 460.918 1691.88 458.497C1704.5 411.086 1717.12 363.676 1729.74 316.266C1732.56 305.699 1735.21 295.076 1738.16 284.547C1740.97 274.486 1745.26 272.178 1755.57 274.768C1758.29 275.462 1760.97 276.382 1763.73 276.908C1771.32 278.372 1773.97 282.426 1772.69 290.309C1761.33 360.673 1750.23 431.057 1739 501.44C1737.57 510.393 1736.26 519.383 1734.19 528.204C1723.47 573.832 1689.56 601.422 1642.66 601.816C1633.84 601.891 1631.17 604.688 1629.7 612.852C1620.24 666.043 1604.03 717.188 1581.5 766.269C1578.83 772.069 1579.66 775.597 1583.07 780.402C1638.72 858.33 1676.22 944.217 1695.41 1038.06C1695.92 1040.5 1696.33 1042.98 1696.69 1045.44C1696.77 1045.98 1696.39 1046.6 1695.87 1048.35C1623.9 1055.16 1551.51 1062.03 1478.3 1068.97V1068.94Z" fill="white"/>
<path d="M1090.36 995.794C1125.23 982.112 1158.62 969.011 1192.71 955.648C1194.02 958.05 1195.37 960.058 1196.28 962.254C1204.18 981.624 1211.88 1001.07 1219.96 1020.36C1221.87 1024.92 1221.78 1027.89 1218.14 1031.85C1193.22 1058.97 1188.2 1089.83 1201.95 1123.85C1205.1 1131.68 1208.46 1139.41 1211.43 1147.3C1219.21 1167.98 1210.15 1187.16 1189.2 1194.58C1184.22 1196.34 1179.19 1197.94 1173.06 1200C1145.57 1132.09 1118.21 1064.54 1090.38 995.813L1090.36 995.794Z" fill="white"/>
<path d="M1768.44 1179.09C1695.43 1186.05 1623.09 1192.96 1549.64 1199.98C1546.48 1162.93 1543.44 1126.99 1540.29 1089.84C1557.41 1088.1 1573.88 1087.14 1590.09 1084.55C1606.92 1081.87 1618.58 1083.63 1630.09 1100.19C1649.6 1128.26 1680.5 1133.48 1713.19 1128.9C1719.67 1128 1726.24 1127.38 1732.8 1127.27C1752.42 1126.91 1767.45 1141.08 1768.4 1160.7C1768.67 1166.27 1768.44 1171.86 1768.44 1179.09Z" fill="white"/>
</svg>
